{
    "asset" : {
        "generator" : "Khronos glTF Blender I/O v1.4.40",
        "version" : "2.0"
    },
    "scene" : 0,
    "scenes" : [
        {
            "name" : "Scene",
            "nodes" : [
                0,
                1,
                2,
                3,
                5,
                6
            ]
        }
    ],
    "nodes" : [
        {
            "name" : "Camera_render",
            "rotation" : [
                0.5900901556015015,
                -0.3772599995136261,
                0.36177992820739746,
                0.6152916550636292
            ],
            "translation" : [
                -5.9966559410095215,
                1.3630107641220093,
                3.4299185276031494
            ]
        },
        {
            "name" : "Area",
            "rotation" : [
                -0.4898917078971863,
                -0.4898916184902191,
                0.5099079608917236,
                0.5099080204963684
            ],
            "scale" : [
                2.3109078407287598,
                2.3109078407287598,
                2.3109078407287598
            ],
            "translation" : [
                -1.1018096208572388,
                1.7758492231369019,
                -3.346994400024414
            ]
        },
        {
            "name" : "Sun",
            "rotation" : [
                0.2761543393135071,
                -0.7895717024803162,
                -0.18092116713523865,
                0.517284095287323
            ],
            "translation" : [
                -0.8579720854759216,
                4.112854480743408,
                2.7403171062469482
            ]
        },
        {
            "name" : "Area.001",
            "rotation" : [
                -0.38483095169067383,
                -0.9227700233459473,
                0.007704293821007013,
                0.01847413182258606
            ],
            "scale" : [
                2.3109078407287598,
                2.3109078407287598,
                2.3109078407287598
            ],
            "translation" : [
                0.5457078814506531,
                3.1277167797088623,
                -1.0237332582473755
            ]
        },
        {
            "mesh" : 0,
            "name" : "Eyes"
        },
        {
            "children" : [
                4
            ],
            "mesh" : 1,
            "name" : "Ant"
        },
        {
            "mesh" : 2,
            "name" : "Leaf",
            "rotation" : [
                0.05141092836856842,
                0,
                0,
                0.9986776113510132
            ],
            "scale" : [
                0.6778527498245239,
                0.7222520112991333,
                0.7222520709037781
            ],
            "translation" : [
                0.028702527284622192,
                1.8746155500411987,
                0.8647385835647583
            ]
        }
    ],
    "materials" : [
        {
            "doubleSided" : true,
            "name" : "Eyes",
            "pbrMetallicRoughness" : {
                "metallicFactor" : 0,
                "roughnessFactor" : 0.5
            }
        },
        {
            "doubleSided" : true,
            "name" : "Ant",
            "pbrMetallicRoughness" : {
                "metallicFactor" : 0,
                "roughnessFactor" : 0.6000000238418579
            }
        },
        {
            "doubleSided" : true,
            "name" : "Leaf",
            "pbrMetallicRoughness" : {
                "metallicFactor" : 0,
                "roughnessFactor" : 0.75
            }
        }
    ],
    "meshes" : [
        {
            "name" : "Sphere.003",
            "primitives" : [
                {
                    "attributes" : {
                        "POSITION" : 0,
                        "NORMAL" : 1,
                        "TEXCOORD_0" : 2,
                        "COLOR_0" : 3
                    },
                    "indices" : 4,
                    "material" : 0
                }
            ]
        },
        {
            "name" : "Plane.001",
            "primitives" : [
                {
                    "attributes" : {
                        "POSITION" : 5,
                        "NORMAL" : 6,
                        "COLOR_0" : 7
                    },
                    "indices" : 8,
                    "material" : 1
                }
            ]
        },
        {
            "name" : "Plane.007",
            "primitives" : [
                {
                    "attributes" : {
                        "POSITION" : 9,
                        "NORMAL" : 10,
                        "TEXCOORD_0" : 11,
                        "COLOR_0" : 12
                    },
                    "indices" : 13,
                    "material" : 2
                }
            ]
        }
    ],
    "accessors" : [
        {
            "bufferView" : 0,
            "componentType" : 5126,
            "count" : 19118,
            "max" : [
                0.22298403084278107,
                1.440924048423767,
                0.9670381546020508
            ],
            "min" : [
                -0.22237011790275574,
                1.17231023311615,
                0.7338998317718506
            ],
            "type" : "VEC3"
        },
        {
            "bufferView" : 1,
            "componentType" : 5126,
            "count" : 19118,
            "type" : "VEC3"
        },
        {
            "bufferView" : 2,
            "componentType" : 5126,
            "count" : 19118,
            "type" : "VEC2"
        },
        {
            "bufferView" : 3,
            "componentType" : 5123,
            "count" : 19118,
            "normalized" : true,
            "type" : "VEC4"
        },
        {
            "bufferView" : 4,
            "componentType" : 5123,
            "count" : 101376,
            "type" : "SCALAR"
        },
        {
            "bufferView" : 5,
            "componentType" : 5126,
            "count" : 11588,
            "max" : [
                0.6140798330307007,
                1.8756884336471558,
                1.2098610401153564
            ],
            "min" : [
                -0.5868269801139832,
                -0.006911825388669968,
                -0.9964625835418701
            ],
            "type" : "VEC3"
        },
        {
            "bufferView" : 6,
            "componentType" : 5126,
            "count" : 11588,
            "type" : "VEC3"
        },
        {
            "bufferView" : 7,
            "componentType" : 5123,
            "count" : 11588,
            "normalized" : true,
            "type" : "VEC4"
        },
        {
            "bufferView" : 8,
            "componentType" : 5123,
            "count" : 69180,
            "type" : "SCALAR"
        },
        {
            "bufferView" : 9,
            "componentType" : 5126,
            "count" : 12018,
            "max" : [
                0.8006950616836548,
                0.10701549798250198,
                1.166321039199829
            ],
            "min" : [
                -0.8016183972358704,
                -0.832074761390686,
                -1.9533746242523193
            ],
            "type" : "VEC3"
        },
        {
            "bufferView" : 10,
            "componentType" : 5126,
            "count" : 12018,
            "type" : "VEC3"
        },
        {
            "bufferView" : 11,
            "componentType" : 5126,
            "count" : 12018,
            "type" : "VEC2"
        },
        {
            "bufferView" : 12,
            "componentType" : 5123,
            "count" : 12018,
            "normalized" : true,
            "type" : "VEC4"
        },
        {
            "bufferView" : 13,
            "componentType" : 5123,
            "count" : 72000,
            "type" : "SCALAR"
        }
    ],
    "bufferViews" : [
        {
            "buffer" : 0,
            "byteLength" : 229416,
            "byteOffset" : 0
        },
        {
            "buffer" : 0,
            "byteLength" : 229416,
            "byteOffset" : 229416
        },
        {
            "buffer" : 0,
            "byteLength" : 152944,
            "byteOffset" : 458832
        },
        {
            "buffer" : 0,
            "byteLength" : 152944,
            "byteOffset" : 611776
        },
        {
            "buffer" : 0,
            "byteLength" : 202752,
            "byteOffset" : 764720
        },
        {
            "buffer" : 0,
            "byteLength" : 139056,
            "byteOffset" : 967472
        },
        {
            "buffer" : 0,
            "byteLength" : 139056,
            "byteOffset" : 1106528
        },
        {
            "buffer" : 0,
            "byteLength" : 92704,
            "byteOffset" : 1245584
        },
        {
            "buffer" : 0,
            "byteLength" : 138360,
            "byteOffset" : 1338288
        },
        {
            "buffer" : 0,
            "byteLength" : 144216,
            "byteOffset" : 1476648
        },
        {
            "buffer" : 0,
            "byteLength" : 144216,
            "byteOffset" : 1620864
        },
        {
            "buffer" : 0,
            "byteLength" : 96144,
            "byteOffset" : 1765080
        },
        {
            "buffer" : 0,
            "byteLength" : 96144,
            "byteOffset" : 1861224
        },
        {
            "buffer" : 0,
            "byteLength" : 144000,
            "byteOffset" : 1957368
        }
    ],
    "buffers" : [
        {
            "byteLength" : 2101368,
            "uri" : "data:application/octet-stream;base64,"
        }
    ]
}
