{
    "asset" : {
        "generator" : "Khronos glTF Blender I/O v1.4.40",
        "version" : "2.0"
    },
    "scene" : 0,
    "scenes" : [
        {
            "name" : "Scene",
            "nodes" : [
                0,
                1,
                2,
                3,
                4
            ]
        }
    ],
    "nodes" : [
        {
            "name" : "Camera_render",
            "rotation" : [
                0.5900901556015015,
                -0.3772599995136261,
                0.36177992820739746,
                0.6152916550636292
            ],
            "translation" : [
                -5.9966559410095215,
                1.3630107641220093,
                3.4299185276031494
            ]
        },
        {
            "name" : "Area",
            "rotation" : [
                -0.4898917078971863,
                -0.4898916184902191,
                0.5099079608917236,
                0.5099080204963684
            ],
            "scale" : [
                2.3109078407287598,
                2.3109078407287598,
                2.3109078407287598
            ],
            "translation" : [
                -1.1537247896194458,
                2.2593164443969727,
                -3.3830673694610596
            ]
        },
        {
            "name" : "Sun",
            "rotation" : [
                0.2761543393135071,
                -0.7895717024803162,
                -0.18092116713523865,
                0.517284095287323
            ],
            "translation" : [
                -0.8579720854759216,
                4.564901351928711,
                2.7403171062469482
            ]
        },
        {
            "name" : "Area.001",
            "rotation" : [
                -0.38483095169067383,
                -0.9227700233459473,
                0.007704293821007013,
                0.01847413182258606
            ],
            "scale" : [
                2.3109078407287598,
                2.3109078407287598,
                2.3109078407287598
            ],
            "translation" : [
                0.5457078814506531,
                3.1277167797088623,
                -1.0237332582473755
            ]
        },
        {
            "mesh" : 0,
            "name" : "Leaf",
            "rotation" : [
                0.05141092836856842,
                0,
                0,
                0.9986776113510132
            ],
            "scale" : [
                0.6778527498245239,
                0.7222520112991333,
                0.7222520709037781
            ],
            "translation" : [
                -0.2943823039531708,
                0.4885627031326294,
                0.8753719925880432
            ]
        }
    ],
    "materials" : [
        {
            "doubleSided" : true,
            "name" : "Leaf",
            "pbrMetallicRoughness" : {
                "metallicFactor" : 0,
                "roughnessFactor" : 0.75
            }
        }
    ],
    "meshes" : [
        {
            "name" : "Plane.007",
            "primitives" : [
                {
                    "attributes" : {
                        "POSITION" : 0,
                        "NORMAL" : 1,
                        "TEXCOORD_0" : 2,
                        "COLOR_0" : 3
                    },
                    "indices" : 4,
                    "material" : 0
                }
            ]
        }
    ],
    "accessors" : [
        {
            "bufferView" : 0,
            "componentType" : 5126,
            "count" : 12018,
            "max" : [
                0.8006950616836548,
                0.10701549798250198,
                1.166321039199829
            ],
            "min" : [
                -0.8016183972358704,
                -0.832074761390686,
                -1.9533746242523193
            ],
            "type" : "VEC3"
        },
        {
            "bufferView" : 1,
            "componentType" : 5126,
            "count" : 12018,
            "type" : "VEC3"
        },
        {
            "bufferView" : 2,
            "componentType" : 5126,
            "count" : 12018,
            "type" : "VEC2"
        },
        {
            "bufferView" : 3,
            "componentType" : 5123,
            "count" : 12018,
            "normalized" : true,
            "type" : "VEC4"
        },
        {
            "bufferView" : 4,
            "componentType" : 5123,
            "count" : 72000,
            "type" : "SCALAR"
        }
    ],
    "bufferViews" : [
        {
            "buffer" : 0,
            "byteLength" : 144216,
            "byteOffset" : 0
        },
        {
            "buffer" : 0,
            "byteLength" : 144216,
            "byteOffset" : 144216
        },
        {
            "buffer" : 0,
            "byteLength" : 96144,
            "byteOffset" : 288432
        },
        {
            "buffer" : 0,
            "byteLength" : 96144,
            "byteOffset" : 384576
        },
        {
            "buffer" : 0,
            "byteLength" : 144000,
            "byteOffset" : 480720
        }
    ],
    "buffers" : [
        {
            "byteLength" : 624720,
            "uri" : "data:application/octet-stream;base64,"
        }
    ]
}
