# Blender v2.80 (sub 75) OBJ File: ''
# www.blender.org
mtllib casa.mtl
o Plane
v -0.989819 -1.004151 -0.061628
v -0.989698 0.995783 -0.045411
v 1.010071 -1.004102 -0.082649
v 1.010192 0.995832 -0.066432
vt 0.000000 0.000000
vt 1.000000 0.000000
vt 1.000000 1.000000
vt 0.000000 1.000000
vn -0.0105 0.0081 -0.9999
usemtl None
s off
f 1/1/1 2/2/1 4/3/1 3/4/1
o Cube_Cube.001
v -0.275888 -0.297173 -0.058438
v -0.280494 -0.287789 -0.574304
v 0.300204 -0.292496 -0.063496
v 0.295598 -0.283111 -0.579362
v -0.280473 0.278840 -0.047919
v -0.285078 0.288225 -0.563784
v 0.295619 0.283518 -0.052977
v 0.291014 0.292902 -0.568842
vt 0.375000 0.000000
vt 0.625000 0.000000
vt 0.625000 0.250000
vt 0.375000 0.250000
vt 0.625000 0.500000
vt 0.375000 0.500000
vt 0.625000 0.750000
vt 0.375000 0.750000
vt 0.625000 1.000000
vt 0.375000 1.000000
vt 0.125000 0.500000
vt 0.125000 0.750000
vt 0.875000 0.500000
vt 0.875000 0.750000
vn 0.0080 -0.9998 -0.0183
vn 0.9999 0.0081 -0.0088
vn -0.0080 0.9998 0.0183
vn -0.9999 -0.0081 0.0088
vn 0.0089 -0.0182 0.9998
vn -0.0089 0.0182 -0.9998
usemtl None
s off
f 5/5/2 6/6/2 8/7/2 7/8/2
f 7/8/3 8/7/3 12/9/3 11/10/3
f 11/10/4 12/9/4 10/11/4 9/12/4
f 9/12/5 10/11/5 6/13/5 5/14/5
f 7/15/6 11/10/6 9/12/6 5/16/6
f 12/9/7 8/17/7 6/18/7 10/11/7
o Cone
v 0.601279 -0.000623 -0.504617
v 0.589840 0.115587 -0.503555
v 0.555951 0.227330 -0.502292
v 0.500912 0.330312 -0.500879
v 0.426840 0.420576 -0.499368
v 0.336581 0.494653 -0.497819
v 0.233603 0.549696 -0.496290
v 0.121864 0.583591 -0.494840
v 0.005657 0.595034 -0.493526
v -0.110550 0.583585 -0.492397
v -0.222294 0.549685 -0.491498
v -0.325279 0.494637 -0.490862
v -0.415547 0.420555 -0.490514
v -0.489630 0.330287 -0.490467
v -0.544681 0.227302 -0.490724
v -0.578584 0.115558 -0.491273
v -0.590037 -0.000652 -0.492095
v -0.578598 -0.116862 -0.493158
v -0.544708 -0.228605 -0.494420
v -0.489670 -0.331587 -0.495834
v -0.415598 -0.421851 -0.497345
v -0.325338 -0.495928 -0.498894
v -0.222360 -0.550971 -0.500423
v -0.006900 0.009023 -1.689632
v -0.110621 -0.584866 -0.501872
v 0.005586 -0.596308 -0.503186
v 0.121793 -0.584860 -0.504315
v 0.233537 -0.550960 -0.505215
v 0.336521 -0.495911 -0.505851
v 0.426790 -0.421829 -0.506199
v 0.500873 -0.331562 -0.506245
v 0.555924 -0.228576 -0.505989
v 0.589827 -0.116832 -0.505439
vt 0.250000 0.490000
vt 0.250000 0.250000
vt 0.296822 0.485388
vt 0.341844 0.471731
vt 0.383337 0.449553
vt 0.419706 0.419706
vt 0.449553 0.383337
vt 0.471731 0.341844
vt 0.485388 0.296822
vt 0.490000 0.250000
vt 0.485388 0.203178
vt 0.471731 0.158156
vt 0.449553 0.116663
vt 0.419706 0.080294
vt 0.383337 0.050447
vt 0.341844 0.028269
vt 0.296822 0.014612
vt 0.250000 0.010000
vt 0.203178 0.014612
vt 0.158156 0.028269
vt 0.116663 0.050447
vt 0.080294 0.080294
vt 0.050447 0.116663
vt 0.028269 0.158156
vt 0.014611 0.203179
vt 0.010000 0.250000
vt 0.014612 0.296822
vt 0.028269 0.341844
vt 0.050447 0.383337
vt 0.080295 0.419706
vt 0.116663 0.449553
vt 0.158156 0.471731
vt 0.203179 0.485389
vt 0.750000 0.490000
vt 0.796822 0.485388
vt 0.841844 0.471731
vt 0.883337 0.449553
vt 0.919706 0.419706
vt 0.949553 0.383337
vt 0.971731 0.341844
vt 0.985388 0.296822
vt 0.990000 0.250000
vt 0.985388 0.203178
vt 0.971731 0.158156
vt 0.949553 0.116663
vt 0.919706 0.080294
vt 0.883337 0.050447
vt 0.841844 0.028269
vt 0.796822 0.014612
vt 0.750000 0.010000
vt 0.703178 0.014612
vt 0.658156 0.028269
vt 0.616663 0.050447
vt 0.580294 0.080294
vt 0.550447 0.116663
vt 0.528269 0.158156
vt 0.514611 0.203179
vt 0.510000 0.250000
vt 0.514612 0.296822
vt 0.528269 0.341844
vt 0.550447 0.383337
vt 0.580295 0.419706
vt 0.616663 0.449553
vt 0.658156 0.471731
vt 0.703179 0.485389
vn 0.8863 0.0914 -0.4541
vn 0.8520 0.2635 -0.4523
vn 0.7849 0.4257 -0.4503
vn 0.6874 0.5716 -0.4481
vn 0.5633 0.6957 -0.4458
vn 0.4174 0.7932 -0.4435
vn 0.2552 0.8603 -0.4412
vn 0.0831 0.8946 -0.4391
vn -0.0924 0.8946 -0.4373
vn -0.2645 0.8603 -0.4358
vn -0.4266 0.7931 -0.4346
vn -0.5726 0.6956 -0.4339
vn -0.6967 0.5715 -0.4336
vn -0.7942 0.4256 -0.4337
vn -0.8614 0.2635 -0.4343
vn -0.8956 0.0913 -0.4354
vn -0.8956 -0.0842 -0.4368
vn -0.8614 -0.2563 -0.4386
vn -0.7942 -0.4184 -0.4406
vn -0.6967 -0.5644 -0.4428
vn -0.5727 -0.6884 -0.4451
vn -0.4267 -0.7859 -0.4474
vn -0.2646 -0.8531 -0.4497
vn -0.0925 -0.8873 -0.4518
vn 0.0830 -0.8873 -0.4536
vn 0.2551 -0.8531 -0.4551
vn 0.4173 -0.7859 -0.4563
vn 0.5632 -0.6884 -0.4570
vn 0.6873 -0.5643 -0.4573
vn 0.7848 -0.4184 -0.4572
vn 0.8520 -0.2562 -0.4566
vn 0.8862 -0.0841 -0.4555
vn 0.0105 -0.0081 0.9999
usemtl None
s off
f 13/19/8 36/20/8 14/21/8
f 14/21/9 36/20/9 15/22/9
f 15/22/10 36/20/10 16/23/10
f 16/23/11 36/20/11 17/24/11
f 17/24/12 36/20/12 18/25/12
f 18/25/13 36/20/13 19/26/13
f 19/26/14 36/20/14 20/27/14
f 20/27/15 36/20/15 21/28/15
f 21/28/16 36/20/16 22/29/16
f 22/29/17 36/20/17 23/30/17
f 23/30/18 36/20/18 24/31/18
f 24/31/19 36/20/19 25/32/19
f 25/32/20 36/20/20 26/33/20
f 26/33/21 36/20/21 27/34/21
f 27/34/22 36/20/22 28/35/22
f 28/35/23 36/20/23 29/36/23
f 29/36/24 36/20/24 30/37/24
f 30/37/25 36/20/25 31/38/25
f 31/38/26 36/20/26 32/39/26
f 32/39/27 36/20/27 33/40/27
f 33/40/28 36/20/28 34/41/28
f 34/41/29 36/20/29 35/42/29
f 35/42/30 36/20/30 37/43/30
f 37/43/31 36/20/31 38/44/31
f 38/44/32 36/20/32 39/45/32
f 39/45/33 36/20/33 40/46/33
f 40/46/34 36/20/34 41/47/34
f 41/47/35 36/20/35 42/48/35
f 42/48/36 36/20/36 43/49/36
f 43/49/37 36/20/37 44/50/37
f 44/50/38 36/20/38 45/51/38
f 45/51/39 36/20/39 13/19/39
f 13/52/40 14/53/40 15/54/40 16/55/40 17/56/40 18/57/40 19/58/40 20/59/40 21/60/40 22/61/40 23/62/40 24/63/40 25/64/40 26/65/40 27/66/40 28/67/40 29/68/40 30/69/40 31/70/40 32/71/40 33/72/40 34/73/40 35/74/40 37/75/40 38/76/40 39/77/40 40/78/40 41/79/40 42/80/40 43/81/40 44/82/40 45/83/40
